<svg xmlns="http://www.w3.org/2000/svg" xmlns:xlink="http://www.w3.org/1999/xlink" version="1.1" x="0px" y="0px" viewBox="0 0 1200 1062.5" enable-background="new 0 0 1200 850" xml:space="preserve"><path d="M238.231,280.151"/><path d="M661.268,610.321c-133.62-1.021-209.02-112.673-240.969-170.606c-31.945-58.001-59.178-51.952-53.384-74.014  c9.4-35.841,87.396,30.086,123.026,71.736c35.61,41.621,86.846,69.318,155.625,71.954c-28.34-45.566-118.867-72.613-90.982-87.304  c25.768-13.578,107.869,2.781,222.48,52.346c39.315,17.005,67.402,48.279,87.34,82.035C1160.486,221.024,836.382-47.426,600,151.327  c-115.284-96.93-251.432-82.73-326.329-3.835c42.345,13.739,95.487,23.758,153.071,24.184  c133.611,1.022,209.02,112.672,240.959,170.61c31.938,58.003,59.18,51.95,53.385,74.013c-9.4,35.84-87.389-30.088-123.025-71.736  c-35.611-41.621-86.849-69.317-155.626-71.954c28.339,45.566,118.876,72.611,90.981,87.305  c-25.755,13.583-107.856-2.774-222.48-52.346c-37.547-16.24-64.854-45.497-84.601-77.499  C187.21,362.632,266.538,567.035,600,766.588c77.269-46.24,140.882-92.741,192.549-138.548  C754.354,617.723,709.356,610.678,661.268,610.321z"/><text x="0" y="865" fill="#000000" font-size="5px" font-weight="bold" font-family="'Helvetica Neue', Helvetica, Arial-Unicode, Arial, Sans-serif">Created by x0n0x</text><text x="0" y="870" fill="#000000" font-size="5px" font-weight="bold" font-family="'Helvetica Neue', Helvetica, Arial-Unicode, Arial, Sans-serif">from the Noun Project</text></svg>